# xmcd
#
# Track frame offsets:
#	150
#	13157
#	28167
#	43005
#	57142
#	71370
#	83152
#	95165
#	106940
#	118620
#	129547
#	141875
#	155865
#	169902
#	182290
#	193105
#	205159
#	217505
# Disc length: 3052 seconds
# Revision: 1
# Processed by: cddbd v1.5.1PL0 Copyright (c) Steve Scherf et al.
#
# Submitted via: libkcddb 0.10
#
DISCID=fb0bea12
DTITLE=Gene Autry - The Essential Gene Autry 1933-1946
DYEAR=1900
DGENRE=Country
TTITLE0=The Yellow Rose of Texas
TTITLE1=The Last Round-Up
TTITLE2=Tumblin' Tumbleweeds
TTITLE3=Mexacali Rose
TTITLE4=Take Me Back To My Boots and Saddle
TTITLE5=Back In The Saddle Again
TTITLE6=El Rancho Grande
TTITLE7=Bleberry Hill
TTITLE8=The Call Of The Canyon
TTITLE9=You Are My Sunshine
TTITLE10=It Makes No Difference Now
TTITLE11=Amapola
TTITLE12=Maria Elena
TTITLE13=Deep In The Heart Of Texas
TTITLE14=I'm Thinking Tonight Of My Blue Eyes
TTITLE15=(I've Got Spurs That) Jingle, Jangle, Jingle
TTITLE16=Ole Faithful
TTITLE17=Red River Valley
EXTD=
EXTT0=
EXTT1=
EXTT2=
EXTT3=
EXTT4=
EXTT5=
EXTT6=
EXTT7=
EXTT8=
EXTT9=
EXTT10=
EXTT11=
EXTT12=
EXTT13=
EXTT14=
EXTT15=
EXTT16=
EXTT17=
PLAYORDER=
